<?xml version="1.0" standalone="no"?>
<!DOCTYPE svg PUBLIC "-//W3C//DTD SVG 20010904//EN"
 "http://www.w3.org/TR/2001/REC-SVG-20010904/DTD/svg10.dtd">
<svg version="1.0" xmlns="http://www.w3.org/2000/svg"
 width="1080.000000pt" height="1080.000000pt" viewBox="0 0 1080.000000 1080.000000"
 preserveAspectRatio="xMidYMid meet">

<g transform="translate(0.000000,1080.000000) scale(0.100000,-0.100000)"
fill="#000000" stroke="none">
<path d="M3460 10510 c-209 -12 -430 -75 -655 -185 -224 -109 -395 -234 -575
-422 -140 -145 -223 -265 -323 -463 -88 -175 -140 -320 -182 -508 l-25 -112 2
-3023 c3 -2893 4 -3025 21 -3092 78 -296 142 -462 246 -637 167 -279 404 -520
671 -680 152 -90 308 -167 425 -208 159 -56 165 -59 223 -132 102 -128 333
-336 471 -425 143 -92 378 -193 581 -250 170 -47 280 -52 1300 -52 l825 -1 64
37 c136 81 197 206 179 363 -16 132 -110 257 -243 320 l-70 34 -230 7 c-126 4
-430 8 -675 9 -610 1 -848 12 -967 44 -124 34 -201 67 -308 130 -121 72 -229
167 -307 268 -124 160 -178 268 -233 458 l-35 122 0 2915 c0 2621 2 2921 16
2971 50 182 113 322 206 460 127 188 348 350 603 442 89 32 92 33 340 41 138
4 601 8 1031 8 888 1 982 -4 1225 -65 474 -119 615 -209 1169 -749 416 -405
456 -435 574 -443 136 -9 265 47 346 150 53 67 65 107 65 223 0 152 -6 160
-373 549 -428 452 -665 649 -964 801 -148 76 -181 99 -318 225 -256 236 -439
368 -690 499 -224 116 -530 240 -707 286 -263 69 -313 76 -593 85 -305 10
-1938 10 -2110 0z m1518 -780 c-470 -11 -528 -18 -771 -96 -138 -45 -395 -175
-516 -262 -270 -192 -472 -426 -611 -707 -93 -187 -124 -271 -173 -455 l-41
-155 -7 -1990 c-3 -1094 -7 -2413 -8 -2930 l-2 -940 -50 55 c-152 167 -247
352 -309 597 -20 81 -20 94 -20 2978 l0 2896 25 92 c89 320 252 560 489 719
115 76 187 112 311 156 134 46 190 49 1185 49 595 0 725 -2 498 -7z"/>
<path d="M7869 5980 c-65 -11 -99 -31 -155 -93 -89 -97 -340 -415 -751 -952
-141 -184 -424 -535 -480 -595 -68 -74 -133 -102 -243 -103 -118 -2 -92 -17
-562 349 -391 305 -391 305 -502 312 -56 3 -83 -1 -128 -18 -80 -30 -159 -104
-200 -188 -30 -61 -33 -74 -33 -162 1 -82 5 -104 29 -160 16 -35 36 -75 46
-87 27 -34 154 -142 401 -339 434 -346 520 -401 714 -450 287 -72 580 -20 828
148 76 52 193 171 297 303 411 523 1011 1304 1099 1431 23 34 49 83 57 109 30
101 9 240 -50 334 -40 63 -122 129 -180 145 -70 19 -132 25 -187 16z"/>
</g>
</svg>
